<svg xmlns="http://www.w3.org/2000/svg" version="1.1" xmlns:xlink="http://www.w3.org/1999/xlink" xmlns:svgjs="http://svgjs.dev/svgjs" width="1500" height="1500" viewBox="0 0 1500 1500"><rect width="1500" height="1500" fill="#ffffff"></rect><g transform="matrix(0.6666666666666666,0,0,0.6666666666666666,248.7765957446809,460.7734046850998)"><svg viewBox="0 0 376 217" data-background-color="#ffffff" preserveAspectRatio="xMidYMid meet" height="865" width="1500" xmlns="http://www.w3.org/2000/svg" xmlns:xlink="http://www.w3.org/1999/xlink"><g id="tight-bounds" transform="matrix(1,0,0,1,0.46023999999999887,0.33613500000002716)"><svg viewBox="0 0 375.07953 216.32772999999995" height="216.32772999999995" width="375.07953"><g><svg></svg></g><g><svg viewBox="0 0 375.07953 216.32772999999995" height="216.32772999999995" width="375.07953"><g transform="matrix(1,0,0,1,-10.22024,-17.37558999999999)"><path d="M10.22 229.824v-212.448h375.08v212.448h-70.909v-6.619h64.289v-199.21h-361.84v199.21l64.289 0 0 6.619z" fill="#89939e" fill-rule="nonzero" stroke="none" stroke-width="1" stroke-linecap="butt" stroke-linejoin="miter" stroke-miterlimit="10" stroke-dasharray="" stroke-dashoffset="0" font-family="none" font-weight="none" font-size="none" text-anchor="none" style="mix-blend-mode: normal" data-fill-palette-color="tertiary"></path><g><path d="M103.329 229.775v0c0.476 0 0.829-0.11 1.058-0.331 0.229-0.22 0.344-0.476 0.344-0.767v0c0-0.168-0.026-0.322-0.08-0.463-0.053-0.141-0.138-0.278-0.256-0.41-0.12-0.132-0.277-0.263-0.471-0.391-0.194-0.127-0.436-0.265-0.728-0.416v0c-0.362-0.185-0.672-0.362-0.931-0.529-0.261-0.168-0.475-0.344-0.643-0.529-0.168-0.185-0.293-0.384-0.375-0.595-0.085-0.212-0.127-0.45-0.127-0.714v0c0-0.317 0.057-0.593 0.172-0.828 0.115-0.233 0.276-0.427 0.484-0.582 0.206-0.153 0.451-0.268 0.733-0.344 0.282-0.074 0.595-0.111 0.939-0.111v0c0.688 0 1.358 0.168 2.01 0.503v0 1.693h-0.622l-0.291-1.429c-0.388-0.185-0.798-0.278-1.23-0.278v0c-0.723 0-1.085 0.295-1.084 0.886v0c0 0.317 0.119 0.608 0.357 0.873 0.238 0.265 0.622 0.529 1.151 0.794v0c0.362 0.185 0.679 0.362 0.952 0.529 0.273 0.168 0.5 0.344 0.68 0.529 0.182 0.185 0.319 0.385 0.412 0.601 0.092 0.217 0.138 0.462 0.138 0.735v0c0 0.309-0.066 0.595-0.198 0.86-0.132 0.265-0.317 0.491-0.556 0.68-0.238 0.19-0.525 0.341-0.86 0.452-0.335 0.109-0.705 0.164-1.111 0.164v0c-0.785 0-1.521-0.168-2.209-0.503v0-1.693h0.622l0.291 1.31c0.45 0.203 0.926 0.304 1.429 0.304zM116.687 227.791v-2.42c0-1.226-0.392-1.839-1.177-1.839v0c-0.67 0-1.305 0.463-1.904 1.389v0 4.497l1.071 0.198c0.035 0.141 0.035 0.317 0 0.529v0c-0.556-0.026-1.12-0.04-1.693-0.039v0c-0.406 0-0.979 0.009-1.719 0.026v0c-0.053-0.168-0.053-0.339 0-0.516v0l1.044-0.145c0.035-0.485 0.053-1.045 0.053-1.68v0-2.42c0-1.226-0.392-1.839-1.177-1.839v0c-0.397 0-0.745 0.121-1.045 0.362-0.3 0.243-0.608 0.621-0.926 1.133v0 4.391l1.072 0.198c0.035 0.141 0.035 0.317 0 0.529v0c-0.556-0.026-1.12-0.04-1.693-0.039v0c-0.406 0-0.979 0.009-1.72 0.026v0c-0.053-0.168-0.053-0.339 0-0.516v0l1.045-0.145c0.035-0.485 0.053-1.045 0.053-1.68v0-3.624c0-0.176-0.013-0.339-0.04-0.489v0l-1.044-0.133c-0.035-0.132-0.035-0.3 0-0.502v0c0.591-0.044 1.345-0.137 2.261-0.278v0c0.079 0.088 0.123 0.176 0.133 0.264v0c-0.044 0.229-0.066 0.622-0.067 1.178v0c0.697-0.961 1.481-1.442 2.355-1.442v0c0.459 0 0.877 0.116 1.256 0.349 0.379 0.235 0.622 0.594 0.728 1.079v0c0.705-0.952 1.486-1.428 2.341-1.428v0c0.538 0 1.012 0.159 1.423 0.476 0.409 0.317 0.614 0.807 0.614 1.468v0 4.709l1.071 0.198c0.035 0.141 0.035 0.317 0 0.529v0c-0.556-0.026-1.12-0.04-1.693-0.039v0c-0.406 0-0.979 0.009-1.719 0.026v0c-0.053-0.168-0.053-0.339 0-0.516v0l1.045-0.145c0.035-0.485 0.053-1.045 0.052-1.68zM120.973 228.333v0c0 0.459 0.084 0.782 0.251 0.971 0.168 0.19 0.432 0.286 0.794 0.286v0c0.265 0 0.558-0.082 0.881-0.246 0.321-0.162 0.618-0.398 0.891-0.706v0-2.064c-0.908 0.053-1.605 0.213-2.09 0.482-0.485 0.27-0.727 0.696-0.727 1.277zM123.79 226.098v0-0.675c0-0.75-0.086-1.294-0.256-1.634-0.173-0.339-0.458-0.508-0.855-0.508v0c-0.406 0-0.732 0.13-0.979 0.389-0.247 0.261-0.414 0.705-0.502 1.33v0c-0.282 0.062-0.489 0.093-0.622 0.093v0c-0.344 0-0.547-0.123-0.608-0.371v0c0-0.6 0.26-1.076 0.78-1.428 0.52-0.353 1.168-0.529 1.944-0.529v0c0.855 0 1.462 0.174 1.82 0.521 0.356 0.349 0.534 0.973 0.535 1.873v0 3.73c0 0.22 0.013 0.41 0.039 0.569v0l1.045 0.132c0.035 0.132 0.035 0.3 0 0.502v0c-0.626 0.026-1.292 0.088-1.997 0.186v0c-0.071-0.071-0.115-0.159-0.132-0.265v0l-0.066-0.913c-0.732 0.838-1.548 1.257-2.447 1.257v0c-0.556 0-0.989-0.159-1.302-0.476-0.314-0.317-0.471-0.745-0.471-1.283v0c0-0.811 0.369-1.424 1.106-1.839 0.735-0.414 1.725-0.635 2.968-0.661zM121.661 221.813v0c-0.141-0.141-0.244-0.3-0.31-0.477-0.067-0.176-0.101-0.357-0.1-0.542v0c0-0.194 0.038-0.379 0.113-0.555 0.074-0.176 0.177-0.331 0.31-0.463 0.132-0.132 0.285-0.236 0.458-0.312 0.171-0.074 0.354-0.111 0.547-0.112v0c0.194 0 0.377 0.04 0.55 0.119 0.171 0.079 0.323 0.185 0.455 0.318 0.132 0.132 0.238 0.284 0.318 0.455 0.079 0.173 0.119 0.356 0.119 0.55v0c0 0.194-0.037 0.377-0.111 0.548-0.076 0.173-0.18 0.325-0.312 0.457-0.132 0.132-0.287 0.235-0.463 0.31-0.176 0.076-0.362 0.114-0.556 0.114v0c-0.185 0-0.366-0.034-0.542-0.101-0.176-0.065-0.335-0.168-0.476-0.309zM122.137 220.252v0c-0.15 0.15-0.225 0.331-0.225 0.542v0c0 0.203 0.078 0.381 0.233 0.535 0.153 0.155 0.332 0.233 0.534 0.232v0c0.203 0 0.384-0.078 0.542-0.232 0.159-0.153 0.238-0.332 0.238-0.535v0c0-0.203-0.079-0.384-0.238-0.542-0.159-0.159-0.339-0.238-0.542-0.238v0c-0.22 0-0.401 0.079-0.542 0.238zM139.715 227.791v-2.42c0-1.226-0.392-1.839-1.177-1.839v0c-0.67 0-1.305 0.463-1.905 1.389v0 4.497l1.072 0.198c0.035 0.141 0.035 0.317 0 0.529v0c-0.556-0.026-1.12-0.04-1.693-0.039v0c-0.406 0-0.979 0.009-1.72 0.026v0c-0.053-0.168-0.053-0.339 0-0.516v0l1.045-0.145c0.035-0.485 0.053-1.045 0.053-1.68v0-2.42c0-1.226-0.392-1.839-1.177-1.839v0c-0.397 0-0.745 0.121-1.045 0.362-0.3 0.243-0.608 0.621-0.926 1.133v0 4.391l1.071 0.198c0.035 0.141 0.035 0.317 0 0.529v0c-0.556-0.026-1.12-0.04-1.693-0.039v0c-0.406 0-0.979 0.009-1.719 0.026v0c-0.053-0.168-0.053-0.339 0-0.516v0l1.045-0.145c0.035-0.485 0.053-1.045 0.053-1.68v0-3.624c0-0.176-0.013-0.339-0.04-0.489v0l-1.045-0.133c-0.035-0.132-0.035-0.3 0-0.502v0c0.591-0.044 1.345-0.137 2.262-0.278v0c0.079 0.088 0.123 0.176 0.132 0.264v0c-0.044 0.229-0.066 0.622-0.066 1.178v0c0.697-0.961 1.481-1.442 2.354-1.442v0c0.459 0 0.877 0.116 1.257 0.349 0.379 0.235 0.622 0.594 0.727 1.079v0c0.705-0.952 1.486-1.428 2.341-1.428v0c0.538 0 1.012 0.159 1.424 0.476 0.409 0.317 0.614 0.807 0.613 1.468v0 4.709l1.072 0.198c0.035 0.141 0.035 0.317 0 0.529v0c-0.556-0.026-1.12-0.04-1.693-0.039v0c-0.406 0-0.979 0.009-1.72 0.026v0c-0.053-0.168-0.053-0.339 0-0.516v0l1.045-0.145c0.035-0.485 0.053-1.045 0.053-1.68zM144 228.333v0c0 0.459 0.084 0.782 0.252 0.971 0.168 0.19 0.432 0.286 0.793 0.286v0c0.265 0 0.558-0.082 0.881-0.246 0.321-0.162 0.618-0.398 0.892-0.706v0-2.064c-0.908 0.053-1.605 0.213-2.09 0.482-0.485 0.27-0.727 0.696-0.728 1.277zM146.818 226.098v0-0.675c0-0.75-0.086-1.294-0.257-1.634-0.173-0.339-0.458-0.508-0.854-0.508v0c-0.406 0-0.732 0.13-0.979 0.389-0.247 0.261-0.414 0.705-0.503 1.33v0c-0.282 0.062-0.489 0.093-0.621 0.093v0c-0.344 0-0.547-0.123-0.609-0.371v0c0-0.6 0.26-1.076 0.781-1.428 0.52-0.353 1.168-0.529 1.944-0.529v0c0.855 0 1.462 0.174 1.82 0.521 0.356 0.349 0.534 0.973 0.534 1.873v0 3.73c0 0.22 0.013 0.41 0.04 0.569v0l1.045 0.132c0.035 0.132 0.035 0.3 0 0.502v0c-0.626 0.026-1.292 0.088-1.997 0.186v0c-0.071-0.071-0.115-0.159-0.133-0.265v0l-0.066-0.913c-0.732 0.838-1.548 1.257-2.447 1.257v0c-0.556 0-0.989-0.159-1.301-0.476-0.314-0.317-0.471-0.745-0.471-1.283v0c0-0.811 0.369-1.424 1.106-1.839 0.735-0.414 1.725-0.635 2.968-0.661zM152.214 229.775v0c0.476 0 0.829-0.11 1.058-0.331 0.229-0.22 0.344-0.476 0.344-0.767v0c0-0.168-0.026-0.322-0.079-0.463-0.053-0.141-0.138-0.278-0.257-0.41-0.12-0.132-0.277-0.263-0.471-0.391-0.194-0.127-0.436-0.265-0.727-0.416v0c-0.362-0.185-0.672-0.362-0.931-0.529-0.261-0.168-0.475-0.344-0.643-0.529-0.168-0.185-0.293-0.384-0.376-0.595-0.085-0.212-0.127-0.45-0.127-0.714v0c0-0.317 0.057-0.593 0.172-0.828 0.115-0.233 0.276-0.427 0.484-0.582 0.206-0.153 0.451-0.268 0.733-0.344 0.282-0.074 0.595-0.111 0.939-0.111v0c0.688 0 1.358 0.168 2.011 0.503v0 1.693h-0.622l-0.291-1.429c-0.388-0.185-0.798-0.278-1.23-0.278v0c-0.723 0-1.085 0.295-1.085 0.886v0c0 0.317 0.119 0.608 0.357 0.873 0.238 0.265 0.622 0.529 1.151 0.794v0c0.362 0.185 0.679 0.362 0.952 0.529 0.273 0.168 0.501 0.344 0.683 0.529 0.18 0.185 0.317 0.385 0.41 0.601 0.092 0.217 0.138 0.462 0.138 0.735v0c0 0.309-0.066 0.595-0.199 0.86-0.132 0.265-0.317 0.491-0.555 0.68-0.238 0.19-0.525 0.341-0.86 0.452-0.335 0.109-0.705 0.164-1.111 0.164v0c-0.785 0-1.521-0.168-2.209-0.503v0-1.693h0.622l0.291 1.31c0.45 0.203 0.926 0.304 1.428 0.304zM160.785 229.484l-2.685-3.201 2.764-2.672-0.873-0.105c-0.035-0.141-0.035-0.313 0-0.516v0c0.485 0.035 0.939 0.053 1.363 0.053v0c0.344 0 0.802-0.013 1.375-0.04v0c0.053 0.159 0.053 0.326 0 0.503v0l-1.045 0.185-2.341 2.195 2.884 3.453 1.031 0.264c0.035 0.141 0.035 0.317 0 0.529v0c-0.556-0.026-1.111-0.04-1.666-0.04v0c-0.379 0-0.939 0.009-1.68 0.027v0c-0.053-0.176-0.053-0.348 0-0.516v0zM157.954 221.707v0 7.711l1.072 0.198c0.035 0.141 0.035 0.317 0 0.529v0c-0.556-0.026-1.12-0.04-1.693-0.039v0c-0.406 0-0.979 0.009-1.72 0.026v0c-0.053-0.168-0.053-0.339 0-0.516v0l1.045-0.145c0.035-0.485 0.053-1.045 0.053-1.68v0-7.579l-1.084-0.132c-0.035-0.132-0.035-0.3 0-0.503v0c0.591-0.044 1.345-0.137 2.261-0.277v0c0.079 0.088 0.123 0.176 0.133 0.264v0c-0.044 0.229-0.066 0.944-0.066 2.143zM166.023 225.172v0 4.246l1.071 0.198c0.009 0.044 0.016 0.084 0.021 0.119 0.004 0.035 0.005 0.075 0.006 0.119v0c0 0.044-0.002 0.09-0.006 0.138-0.005 0.049-0.012 0.101-0.021 0.153v0c-0.556-0.026-1.124-0.04-1.706-0.039v0c-0.203 0-0.447 0.003-0.733 0.008-0.287 0.004-0.616 0.01-0.987 0.018v0c-0.026-0.079-0.04-0.163-0.039-0.251v0c0-0.079 0.013-0.168 0.039-0.265v0l1.045-0.145c0.018-0.247 0.031-0.51 0.04-0.788 0.009-0.277 0.013-0.574 0.013-0.892v0-2.817c0-0.582-0.013-1.014-0.039-1.296v0l-1.045-0.133c-0.018-0.044-0.026-0.119-0.027-0.225v0c0-0.044 0-0.088 0-0.132 0-0.044 0.009-0.093 0.027-0.145v0c0.6-0.035 1.358-0.128 2.275-0.278v0c0.079 0.088 0.123 0.176 0.132 0.264v0c-0.044 0.247-0.066 0.961-0.066 2.143zM164.092 220.45v0c-0.018-0.044-0.026-0.091-0.027-0.14 0-0.048 0-0.093 0-0.138v0c0-0.238 0.1-0.43 0.299-0.576 0.198-0.145 0.442-0.217 0.733-0.217v0c0.273 0 0.496 0.081 0.669 0.243 0.171 0.164 0.257 0.387 0.257 0.67v0c0 0.229-0.099 0.414-0.297 0.555-0.199 0.141-0.453 0.212-0.761 0.212v0c-0.212 0-0.399-0.053-0.561-0.159-0.164-0.106-0.268-0.256-0.312-0.45zM173.271 227.791v-2.42c0-0.679-0.09-1.155-0.27-1.429-0.182-0.273-0.484-0.41-0.907-0.41v0c-0.653 0-1.309 0.489-1.971 1.468v0 4.418l1.071 0.198c0.035 0.141 0.035 0.317 0 0.529v0c-0.556-0.026-1.124-0.04-1.706-0.039v0c-0.406 0-0.979 0.009-1.719 0.026v0c-0.053-0.168-0.053-0.339 0-0.516v0l1.045-0.145c0.035-0.485 0.053-1.045 0.052-1.68v0-3.624c0-0.176-0.013-0.339-0.039-0.489v0l-1.045-0.133c-0.035-0.132-0.035-0.3 0-0.502v0c0.608-0.044 1.367-0.137 2.275-0.278v0c0.079 0.088 0.123 0.176 0.132 0.264v0c-0.044 0.229-0.066 0.622-0.066 1.178v0c0.697-0.961 1.481-1.442 2.354-1.442v0c1.367 0 2.05 0.648 2.05 1.944v0 4.709l1.072 0.198c0.035 0.141 0.035 0.317 0 0.529v0c-0.556-0.026-1.124-0.04-1.706-0.039v0c-0.406 0-0.979 0.009-1.72 0.026v0c-0.053-0.168-0.053-0.339 0-0.516v0l1.045-0.145c0.035-0.485 0.053-1.045 0.053-1.68zM181.895 226.363v0h-4.153c-0.079 2.249 0.595 3.373 2.023 3.372v0c0.608 0 1.23-0.269 1.865-0.806v0c0.132 0.079 0.234 0.216 0.304 0.41v0c-0.608 0.679-1.38 1.018-2.314 1.018v0c-2.152 0-3.227-1.265-3.228-3.796v0c0-1.199 0.317-2.132 0.953-2.799 0.635-0.665 1.376-0.997 2.222-0.997v0c0.926 0 1.592 0.322 1.997 0.965 0.406 0.644 0.608 1.481 0.608 2.514v0c-0.088 0.071-0.181 0.11-0.277 0.119zM179.54 223.294v0c-0.459 0-0.848 0.238-1.169 0.714-0.323 0.476-0.519 1.085-0.59 1.825v0h1.64c0.653 0 1.12-0.04 1.402-0.119v0c0-0.723-0.11-1.308-0.33-1.753-0.22-0.444-0.538-0.667-0.953-0.667zM185.558 223.029v0l-0.026 1.363c0.22-0.406 0.526-0.779 0.918-1.119 0.393-0.339 0.766-0.508 1.119-0.508v0c0.273 0 0.516 0.031 0.727 0.093v0c0.071 0.115 0.106 0.265 0.106 0.449v0c0 0.291-0.062 0.582-0.185 0.873v0c-0.317-0.088-0.622-0.132-0.913-0.132v0c-0.723 0-1.318 0.353-1.785 1.058v0l-0.027 2.315v1.997l1.468 0.198c0.035 0.141 0.035 0.317 0 0.529v0c-0.556-0.026-1.19-0.04-1.904-0.039v0c-0.538 0-1.177 0.009-1.918 0.026v0c-0.053-0.168-0.053-0.339 0-0.516v0l1.045-0.145c0.035-0.485 0.053-1.045 0.053-1.68v0-3.624c0-0.176-0.013-0.339-0.04-0.489v0l-1.045-0.133c-0.035-0.132-0.035-0.3 0-0.502v0c0.608-0.044 1.367-0.137 2.275-0.278v0c0.079 0.088 0.123 0.176 0.132 0.264zM200.915 225.701v0h-0.873c-0.176 0.838-0.454 1.583-0.834 2.236v0l0.106 0.119c0.45 0.591 0.805 1.016 1.066 1.275 0.259 0.261 0.468 0.392 0.627 0.391v0c0.15 0 0.225-0.075 0.225-0.225v0c0-0.132-0.11-0.406-0.331-0.82v0c0.282-0.353 0.6-0.529 0.953-0.529v0c0.194 0 0.333 0.066 0.418 0.199 0.083 0.132 0.124 0.278 0.124 0.436v0c0 0.265-0.194 0.582-0.582 0.952-0.388 0.37-0.851 0.556-1.389 0.556v0c-0.37 0-0.741-0.097-1.111-0.291-0.37-0.194-0.688-0.467-0.952-0.82v0l-0.053-0.066c-0.82 0.776-1.856 1.164-3.108 1.164v0c-0.82 0-1.503-0.212-2.051-0.635-0.547-0.423-0.82-1.014-0.82-1.773v0c0-0.661 0.192-1.226 0.577-1.693 0.383-0.467 1.028-0.979 1.937-1.534v0l-0.582-0.767c-0.617-0.794-0.926-1.503-0.926-2.13v0c0-0.653 0.232-1.201 0.695-1.645 0.462-0.446 1.108-0.669 1.937-0.669v0c0.864 0 1.517 0.174 1.957 0.521 0.441 0.349 0.661 0.841 0.662 1.476v0c0 0.406-0.141 0.816-0.424 1.23-0.282 0.414-0.882 0.952-1.798 1.614v0l2.46 3.174c0.273-0.538 0.472-1.12 0.595-1.746v0h-0.82c-0.035-0.132-0.035-0.295 0-0.489v0c0.485 0.035 0.869 0.053 1.151 0.053v0c0.203 0 0.591-0.013 1.164-0.04v0c0.053 0.159 0.053 0.317 0 0.476zM195.597 229.669v0c0.935 0 1.724-0.331 2.368-0.992v0l-2.764-3.571c-0.864 0.679-1.296 1.53-1.297 2.553v0c0 0.688 0.154 1.195 0.463 1.521 0.309 0.326 0.719 0.489 1.23 0.489zM194.619 221.178v0c0 0.582 0.26 1.199 0.78 1.851v0l0.635 0.834c0.353-0.282 0.648-0.63 0.886-1.045 0.238-0.414 0.357-0.807 0.357-1.177v0c0-1.182-0.436-1.772-1.309-1.773v0c-0.397 0-0.72 0.119-0.971 0.357-0.252 0.238-0.378 0.556-0.378 0.953zM208.599 229.775v0c0.476 0 0.829-0.11 1.058-0.331 0.229-0.22 0.344-0.476 0.344-0.767v0c0-0.168-0.026-0.322-0.079-0.463-0.053-0.141-0.138-0.278-0.257-0.41-0.12-0.132-0.277-0.263-0.471-0.391-0.194-0.127-0.436-0.265-0.727-0.416v0c-0.362-0.185-0.672-0.362-0.931-0.529-0.261-0.168-0.475-0.344-0.643-0.529-0.168-0.185-0.293-0.384-0.376-0.595-0.085-0.212-0.127-0.45-0.127-0.714v0c0-0.317 0.057-0.593 0.172-0.828 0.115-0.233 0.276-0.427 0.484-0.582 0.206-0.153 0.451-0.268 0.733-0.344 0.282-0.074 0.595-0.111 0.939-0.111v0c0.688 0 1.358 0.168 2.011 0.503v0 1.693h-0.622l-0.291-1.429c-0.388-0.185-0.798-0.278-1.23-0.278v0c-0.723 0-1.085 0.295-1.085 0.886v0c0 0.317 0.119 0.608 0.358 0.873 0.238 0.265 0.622 0.529 1.15 0.794v0c0.362 0.185 0.679 0.362 0.953 0.529 0.273 0.168 0.501 0.344 0.682 0.529 0.18 0.185 0.317 0.385 0.41 0.601 0.092 0.217 0.138 0.462 0.138 0.735v0c0 0.309-0.066 0.595-0.199 0.86-0.132 0.265-0.317 0.491-0.555 0.68-0.238 0.19-0.525 0.341-0.86 0.452-0.335 0.109-0.705 0.164-1.111 0.164v0c-0.785 0-1.521-0.168-2.209-0.503v0-1.693h0.622l0.291 1.31c0.45 0.203 0.926 0.304 1.428 0.304zM214.26 221.442v0 1.892h1.865c0.018 0.106 0.026 0.185 0.027 0.238v0c0 0.079-0.009 0.172-0.027 0.278v0l-1.865 0.277v3.638c0 0.653 0.06 1.113 0.18 1.38 0.118 0.27 0.305 0.405 0.561 0.405v0c0.229 0 0.586-0.093 1.071-0.278v0c0.088 0.079 0.15 0.229 0.185 0.45v0c-0.265 0.159-0.465 0.275-0.6 0.349-0.138 0.076-0.309 0.143-0.516 0.201-0.208 0.056-0.427 0.085-0.656 0.085v0c-0.441 0-0.8-0.17-1.077-0.511-0.279-0.339-0.418-0.856-0.418-1.552v0-4.325l-0.925-0.12c-0.018-0.088-0.026-0.163-0.027-0.224v0c0-0.071 0.009-0.168 0.027-0.291v0c0.247-0.044 0.461-0.122 0.642-0.233 0.18-0.109 0.332-0.264 0.455-0.463 0.123-0.198 0.219-0.374 0.286-0.529 0.065-0.153 0.146-0.376 0.243-0.667v0c0.079-0.026 0.176-0.04 0.291-0.039v0c0.106 0 0.198 0.013 0.278 0.039zM217.025 226.574v0c0-0.529 0.078-1.026 0.232-1.489 0.153-0.462 0.376-0.865 0.667-1.209 0.291-0.344 0.642-0.615 1.053-0.815 0.409-0.198 0.869-0.296 1.381-0.296v0c0.503 0 0.961 0.099 1.375 0.296 0.414 0.199 0.77 0.471 1.066 0.815 0.295 0.344 0.521 0.747 0.68 1.209 0.159 0.464 0.238 0.96 0.238 1.489v0c0 0.547-0.081 1.049-0.243 1.508-0.164 0.459-0.393 0.857-0.688 1.196-0.296 0.34-0.652 0.605-1.066 0.793-0.414 0.19-0.869 0.286-1.362 0.286v0c-0.52 0-0.985-0.093-1.394-0.278-0.411-0.185-0.759-0.445-1.045-0.78-0.287-0.335-0.508-0.735-0.662-1.198-0.155-0.462-0.233-0.971-0.232-1.527zM218.956 224.14v0c-0.379 0.538-0.569 1.349-0.569 2.434v0c0 0.538 0.051 1.01 0.153 1.415 0.101 0.406 0.239 0.742 0.416 1.011 0.176 0.27 0.384 0.471 0.621 0.603 0.238 0.132 0.498 0.198 0.781 0.198v0c0.273 0 0.533-0.066 0.78-0.198 0.247-0.132 0.459-0.333 0.635-0.603 0.176-0.268 0.317-0.605 0.423-1.011 0.106-0.406 0.159-0.877 0.159-1.415v0c0-0.538-0.053-1.012-0.159-1.423-0.106-0.409-0.249-0.749-0.428-1.018-0.182-0.268-0.393-0.471-0.635-0.609-0.243-0.136-0.502-0.204-0.775-0.204v0c-0.547 0-1.014 0.273-1.402 0.821zM227.103 223.029v0l-0.026 1.363c0.22-0.406 0.527-0.779 0.92-1.119 0.392-0.339 0.764-0.508 1.117-0.508v0c0.273 0 0.516 0.031 0.727 0.093v0c0.071 0.115 0.106 0.265 0.106 0.449v0c0 0.291-0.062 0.582-0.185 0.873v0c-0.317-0.088-0.622-0.132-0.913-0.132v0c-0.723 0-1.318 0.353-1.785 1.058v0l-0.027 2.315v1.997l1.468 0.198c0.035 0.141 0.035 0.317 0 0.529v0c-0.556-0.026-1.19-0.04-1.904-0.039v0c-0.538 0-1.177 0.009-1.918 0.026v0c-0.053-0.168-0.053-0.339 0-0.516v0l1.045-0.145c0.035-0.485 0.053-1.045 0.053-1.68v0-3.624c0-0.176-0.013-0.339-0.04-0.489v0l-1.045-0.133c-0.035-0.132-0.035-0.3 0-0.502v0c0.608-0.044 1.367-0.137 2.275-0.278v0c0.079 0.088 0.123 0.176 0.132 0.264zM231.825 228.333v0c0 0.459 0.084 0.782 0.251 0.971 0.168 0.19 0.432 0.286 0.794 0.286v0c0.265 0 0.558-0.082 0.881-0.246 0.321-0.162 0.618-0.398 0.891-0.706v0-2.064c-0.908 0.053-1.605 0.213-2.089 0.482-0.485 0.27-0.727 0.696-0.728 1.277zM234.642 226.098v0-0.675c0-0.75-0.086-1.294-0.256-1.634-0.173-0.339-0.458-0.508-0.855-0.508v0c-0.406 0-0.732 0.13-0.978 0.389-0.247 0.261-0.414 0.705-0.503 1.33v0c-0.282 0.062-0.489 0.093-0.622 0.093v0c-0.344 0-0.547-0.123-0.608-0.371v0c0-0.6 0.26-1.076 0.78-1.428 0.52-0.353 1.168-0.529 1.945-0.529v0c0.855 0 1.462 0.174 1.82 0.521 0.356 0.349 0.534 0.973 0.534 1.873v0 3.73c0 0.22 0.013 0.41 0.04 0.569v0l1.045 0.132c0.035 0.132 0.035 0.3 0 0.502v0c-0.626 0.026-1.292 0.088-1.998 0.186v0c-0.071-0.071-0.115-0.159-0.132-0.265v0l-0.066-0.913c-0.732 0.838-1.548 1.257-2.447 1.257v0c-0.556 0-0.989-0.159-1.302-0.476-0.314-0.317-0.471-0.745-0.47-1.283v0c0-0.811 0.369-1.424 1.105-1.839 0.735-0.414 1.725-0.635 2.968-0.661zM244.827 229.643v0c0.582 0 1.043-0.282 1.383-0.847 0.339-0.564 0.508-1.415 0.508-2.552v0c0-0.873-0.16-1.539-0.481-1.998-0.323-0.459-0.749-0.688-1.278-0.687v0c-0.776 0-1.446 0.375-2.01 1.124v0 4.113c0.494 0.564 1.12 0.847 1.878 0.847zM241.692 231.349v-6.428c0-0.591-0.013-1.005-0.039-1.243v0l-1.045-0.133c-0.026-0.141-0.026-0.309 0-0.502v0c0.617-0.044 1.376-0.137 2.275-0.278v0c0.079 0.079 0.123 0.168 0.132 0.264v0c-0.044 0.309-0.066 0.635-0.066 0.979v0c0.714-0.829 1.534-1.243 2.46-1.243v0c0.776 0 1.421 0.322 1.936 0.965 0.517 0.644 0.775 1.495 0.775 2.553v0c0 1.226-0.337 2.211-1.01 2.955-0.675 0.746-1.472 1.119-2.389 1.119v0c-0.644 0-1.234-0.207-1.772-0.622v0 3.241l1.336 0.198c0.035 0.141 0.035 0.317 0 0.529v0c-0.556-0.026-1.168-0.04-1.839-0.039v0c-0.494 0-1.111 0.009-1.852 0.026v0c-0.053-0.176-0.053-0.348 0-0.516v0l1.045-0.145c0.035-0.485 0.053-1.045 0.053-1.68zM251.52 223.029v0l-0.027 1.363c0.22-0.406 0.526-0.779 0.918-1.119 0.393-0.339 0.766-0.508 1.119-0.508v0c0.273 0 0.516 0.031 0.727 0.093v0c0.071 0.115 0.106 0.265 0.106 0.449v0c0 0.291-0.062 0.582-0.185 0.873v0c-0.317-0.088-0.622-0.132-0.913-0.132v0c-0.723 0-1.318 0.353-1.785 1.058v0l-0.027 2.315v1.997l1.469 0.198c0.035 0.141 0.035 0.317 0 0.529v0c-0.556-0.026-1.19-0.04-1.905-0.039v0c-0.538 0-1.177 0.009-1.918 0.026v0c-0.053-0.168-0.053-0.339 0-0.516v0l1.045-0.145c0.035-0.485 0.053-1.045 0.053-1.68v0-3.624c0-0.176-0.013-0.339-0.04-0.489v0l-1.045-0.133c-0.035-0.132-0.035-0.3 0-0.502v0c0.608-0.044 1.367-0.137 2.275-0.278v0c0.079 0.088 0.123 0.176 0.133 0.264zM254.972 226.574v0c0-0.529 0.077-1.026 0.23-1.489 0.155-0.462 0.378-0.865 0.669-1.209 0.291-0.344 0.641-0.615 1.05-0.815 0.411-0.198 0.872-0.296 1.384-0.296v0c0.503 0 0.961 0.099 1.375 0.296 0.414 0.199 0.769 0.471 1.064 0.815 0.296 0.344 0.524 0.747 0.682 1.209 0.159 0.464 0.238 0.96 0.238 1.489v0c0 0.547-0.082 1.049-0.246 1.508-0.162 0.459-0.392 0.857-0.687 1.196-0.295 0.34-0.649 0.605-1.064 0.793-0.414 0.19-0.869 0.286-1.362 0.286v0c-0.52 0-0.986-0.093-1.397-0.278-0.409-0.185-0.757-0.445-1.045-0.78-0.286-0.335-0.506-0.735-0.661-1.198-0.153-0.462-0.23-0.971-0.23-1.527zM256.903 224.14v0c-0.379 0.538-0.569 1.349-0.569 2.434v0c0 0.538 0.05 1.01 0.151 1.415 0.102 0.406 0.242 0.742 0.418 1.011 0.176 0.27 0.384 0.471 0.621 0.603 0.238 0.132 0.498 0.198 0.781 0.198v0c0.273 0 0.533-0.066 0.78-0.198 0.247-0.132 0.459-0.333 0.635-0.603 0.176-0.268 0.317-0.605 0.423-1.011 0.106-0.406 0.159-0.877 0.159-1.415v0c0-0.538-0.053-1.012-0.159-1.423-0.106-0.409-0.25-0.749-0.431-1.018-0.18-0.268-0.392-0.471-0.635-0.609-0.242-0.136-0.499-0.204-0.772-0.204v0c-0.547 0-1.014 0.273-1.402 0.821zM263.82 230.238v0c0.079 0.035 0.145 0.11 0.199 0.225v0c-0.291 0.238-0.436 0.595-0.437 1.071v0c0 0.423 0.194 0.763 0.582 1.019 0.388 0.256 0.891 0.384 1.508 0.383v0c0.635 0 1.164-0.116 1.587-0.349 0.423-0.235 0.635-0.563 0.635-0.987v0c0-0.459-0.084-0.795-0.251-1.01-0.168-0.217-0.503-0.347-1.005-0.392v0l-2.474-0.225c-0.273-0.035-0.501-0.179-0.682-0.431-0.18-0.25-0.27-0.495-0.27-0.733v0l0.886-1.468c-0.406-0.229-0.712-0.533-0.918-0.912-0.208-0.379-0.312-0.767-0.312-1.164v0c0-0.75 0.278-1.354 0.833-1.812 0.556-0.459 1.195-0.688 1.918-0.688v0c0.697 0 1.309 0.185 1.839 0.555v0c0.044-1.208 0.494-1.834 1.349-1.878v0c0.229 0.053 0.344 0.242 0.344 0.569v0c0 0.176-0.018 0.37-0.053 0.582v0c-0.344 0.026-0.626 0.138-0.847 0.336-0.22 0.199-0.379 0.427-0.476 0.682v0c0.441 0.441 0.661 0.992 0.661 1.654v0c0 0.697-0.282 1.276-0.846 1.738-0.564 0.464-1.221 0.696-1.971 0.695v0c-0.397 0-0.754-0.053-1.071-0.158v0l-0.45 1.177 3.294 0.331c0.511 0.062 0.901 0.249 1.169 0.56 0.27 0.314 0.405 0.722 0.404 1.225v0c0 0.882-0.317 1.559-0.952 2.032-0.635 0.471-1.495 0.706-2.579 0.706v0c-0.899 0-1.6-0.163-2.103-0.489-0.503-0.326-0.754-0.763-0.754-1.31v0c0-0.37 0.119-0.698 0.357-0.984 0.238-0.287 0.533-0.471 0.886-0.55zM264.058 225.265v0c0 0.511 0.143 0.948 0.429 1.309 0.287 0.362 0.669 0.542 1.145 0.542v0c0.467 0 0.851-0.179 1.151-0.537 0.3-0.356 0.45-0.794 0.45-1.314v0c0-0.564-0.148-1.034-0.445-1.41-0.295-0.374-0.68-0.561-1.156-0.561v0c-0.45 0-0.824 0.19-1.124 0.569-0.3 0.379-0.45 0.847-0.45 1.402zM271.981 223.029v0l-0.026 1.363c0.22-0.406 0.526-0.779 0.918-1.119 0.393-0.339 0.766-0.508 1.119-0.508v0c0.273 0 0.516 0.031 0.727 0.093v0c0.071 0.115 0.106 0.265 0.106 0.449v0c0 0.291-0.062 0.582-0.185 0.873v0c-0.317-0.088-0.622-0.132-0.913-0.132v0c-0.723 0-1.318 0.353-1.786 1.058v0l-0.026 2.315v1.997l1.468 0.198c0.035 0.141 0.035 0.317 0 0.529v0c-0.556-0.026-1.19-0.04-1.904-0.039v0c-0.538 0-1.177 0.009-1.918 0.026v0c-0.053-0.168-0.053-0.339 0-0.516v0l1.045-0.145c0.035-0.485 0.053-1.045 0.052-1.68v0-3.624c0-0.176-0.013-0.339-0.039-0.489v0l-1.045-0.133c-0.035-0.132-0.035-0.3 0-0.502v0c0.608-0.044 1.367-0.137 2.275-0.278v0c0.079 0.088 0.123 0.176 0.132 0.264zM276.703 228.333v0c0 0.459 0.084 0.782 0.251 0.971 0.168 0.19 0.432 0.286 0.794 0.286v0c0.265 0 0.557-0.082 0.878-0.246 0.323-0.162 0.621-0.398 0.894-0.706v0-2.064c-0.908 0.053-1.605 0.213-2.089 0.482-0.485 0.27-0.727 0.696-0.728 1.277zM279.52 226.098v0-0.675c0-0.75-0.086-1.294-0.259-1.634-0.171-0.339-0.455-0.508-0.852-0.508v0c-0.406 0-0.732 0.13-0.978 0.389-0.247 0.261-0.414 0.705-0.503 1.33v0c-0.282 0.062-0.489 0.093-0.622 0.093v0c-0.344 0-0.547-0.123-0.608-0.371v0c0-0.6 0.26-1.076 0.78-1.428 0.52-0.353 1.168-0.529 1.945-0.529v0c0.855 0 1.462 0.174 1.82 0.521 0.356 0.349 0.534 0.973 0.534 1.873v0 3.73c0 0.22 0.013 0.41 0.04 0.569v0l1.044 0.132c0.035 0.132 0.035 0.3 0 0.502v0c-0.626 0.026-1.292 0.088-1.997 0.186v0c-0.071-0.071-0.115-0.159-0.132-0.265v0l-0.066-0.913c-0.732 0.838-1.548 1.257-2.447 1.257v0c-0.556 0-0.99-0.159-1.304-0.476-0.312-0.317-0.468-0.745-0.468-1.283v0c0-0.811 0.368-1.424 1.103-1.839 0.737-0.414 1.727-0.635 2.97-0.661zM292.191 227.791v-2.42c0-1.226-0.392-1.839-1.177-1.839v0c-0.67 0-1.305 0.463-1.904 1.389v0 4.497l1.071 0.198c0.035 0.141 0.035 0.317 0 0.529v0c-0.556-0.026-1.12-0.04-1.693-0.039v0c-0.406 0-0.979 0.009-1.719 0.026v0c-0.053-0.168-0.053-0.339 0-0.516v0l1.044-0.145c0.035-0.485 0.053-1.045 0.053-1.68v0-2.42c0-1.226-0.392-1.839-1.177-1.839v0c-0.397 0-0.745 0.121-1.045 0.362-0.3 0.243-0.608 0.621-0.926 1.133v0 4.391l1.072 0.198c0.035 0.141 0.035 0.317 0 0.529v0c-0.556-0.026-1.12-0.04-1.693-0.039v0c-0.406 0-0.979 0.009-1.72 0.026v0c-0.053-0.168-0.053-0.339 0-0.516v0l1.045-0.145c0.035-0.485 0.053-1.045 0.053-1.68v0-3.624c0-0.176-0.013-0.339-0.04-0.489v0l-1.044-0.133c-0.035-0.132-0.035-0.3 0-0.502v0c0.591-0.044 1.345-0.137 2.261-0.278v0c0.079 0.088 0.123 0.176 0.133 0.264v0c-0.044 0.229-0.066 0.622-0.067 1.178v0c0.697-0.961 1.481-1.442 2.355-1.442v0c0.459 0 0.877 0.116 1.256 0.349 0.379 0.235 0.622 0.594 0.728 1.079v0c0.705-0.952 1.486-1.428 2.341-1.428v0c0.538 0 1.012 0.159 1.423 0.476 0.409 0.317 0.614 0.807 0.614 1.468v0 4.709l1.071 0.198c0.035 0.141 0.035 0.317 0 0.529v0c-0.556-0.026-1.12-0.04-1.693-0.039v0c-0.406 0-0.979 0.009-1.719 0.026v0c-0.053-0.168-0.053-0.339 0-0.516v0l1.045-0.145c0.035-0.485 0.053-1.045 0.052-1.68z" fill="#89939e" fill-rule="nonzero" stroke="none" stroke-width="1" stroke-linecap="butt" stroke-linejoin="miter" stroke-miterlimit="10" stroke-dasharray="" stroke-dashoffset="0" font-family="none" font-weight="none" font-size="none" text-anchor="none" style="mix-blend-mode: normal" data-fill-palette-color="secondary" id="text-1"></path></g></g><g transform="matrix(1,0,0,1,29.33176499999999,71.46275480944487)"><svg viewBox="0 0 316.416 73.40222038111018" height="73.40222038111018" width="316.416"><g><svg viewBox="0 0 316.416 73.40222038111018" height="73.40222038111018" width="316.416"><g><svg viewBox="0 0 316.416 73.40222038111018" height="73.40222038111018" width="316.416"><g><svg viewBox="0 0 316.416 73.40222038111018" height="73.40222038111018" width="316.416"><g id="textblocktransform"><svg viewBox="0 0 316.416 73.40222038111018" height="73.40222038111018" width="316.416" id="textblock"><g><svg viewBox="0 0 316.416 73.40222038111018" height="73.40222038111018" width="316.416"><g transform="matrix(1,0,0,1,0,0)"><svg width="316.416" viewBox="2.4399999999999995 -31.74 176.79 41.019999999999996" height="73.40222038111018" data-palette-color="#89939e"><path d="M9.28-0.83L9.28-0.83Q12.65-0.83 13.82-2.88L13.82-2.88Q14.26-3.61 14.26-4.49L14.26-4.49Q14.26-6.54 11.28-8.01L11.28-8.01Q10.64-8.35 9.18-8.98L9.18-8.98Q5.18-10.64 3.86-12.11L3.86-12.11Q2.44-13.72 2.44-15.87L2.44-15.87Q2.44-19.24 6.15-20.61L6.15-20.61Q7.86-21.24 9.86-21.24L9.86-21.24Q13.09-21.24 15.43-19.87L15.43-19.87Q15.43-21.29 16.11-21.48L16.11-21.48Q16.41-21.53 16.75-21.53L16.75-21.53 16.75-15.43 15.48-15.43Q15.38-19.92 10.5-19.97L10.5-19.97Q6.84-19.97 5.96-17.82L5.96-17.82Q5.71-17.24 5.71-16.6L5.71-16.6Q5.71-14.5 8.74-13.04L8.74-13.04Q9.42-12.7 10.89-12.11L10.89-12.11Q14.84-10.5 16.16-9.03L16.16-9.03Q17.58-7.47 17.58-5.32L17.58-5.32Q17.58-1.37 13.38-0.05L13.38-0.05Q11.77 0.49 9.86 0.49L9.86 0.49Q6.35 0.44 3.76-1.27L3.76-1.27Q3.76 0 3.13 0.2L3.13 0.2Q2.83 0.24 2.44 0.24L2.44 0.24 2.44-7.18 3.81-7.18Q3.91-0.88 9.28-0.83ZM30.52-1.22L30.52-1.22 28.32-1.22 28.32-11.77Q28.46-16.06 31.3-18.16L31.3-18.16Q32.61-19.14 33.93-19.14L33.93-19.14Q36.37-19.14 37.3-16.46L37.3-16.46Q37.69-15.28 37.69-13.82L37.69-13.82 37.69-4.15Q37.69-1.9 36.62-1.46L36.62-1.46Q35.94-1.22 34.27-1.22L34.27-1.22 34.27 0 44.77 0Q44.77-1.07 44.04-1.17L44.04-1.17Q43.85-1.22 43.55-1.22L43.55-1.22 41.35-1.22 41.35-13.33 41.35-13.72Q42.14-17.29 44.82-18.7L44.82-18.7Q45.85-19.19 46.77-19.19L46.77-19.19Q49.27-19.19 50.29-16.6L50.29-16.6Q50.78-15.38 50.78-13.82L50.78-13.82 50.78-4.15Q50.78-1.9 49.7-1.46L49.7-1.46Q49.02-1.22 47.36-1.22L47.36-1.22 47.36 0 58.15 0Q58.15-1.07 57.42-1.17L57.42-1.17Q57.22-1.22 56.93-1.22L56.93-1.22 54.44-1.22 54.44-13.33Q54.44-18.36 51.17-20.36L51.17-20.36Q49.7-21.24 48-21.24L48-21.24Q44.28-21.24 42.04-17.77L42.04-17.77Q41.45-16.89 41.06-15.92L41.06-15.92Q40.18-19.78 37.2-20.9L37.2-20.9Q36.33-21.24 35.4-21.24L35.4-21.24Q31.88-21.24 29.59-18.26L29.59-18.26Q28.76-17.19 28.27-15.87L28.27-15.87 28.07-20.75 20.99-20.75 20.99-19.53 24.66-19.53 24.66-4.15Q24.66-1.9 23.39-1.46L23.39-1.46Q22.65-1.22 20.99-1.22L20.99-1.22 20.99 0 31.74 0Q31.74-1.03 31-1.17L31-1.17Q30.76-1.22 30.52-1.22ZM65.47-10.4L65.47-10.4Q65.47-17.97 69.62-19.63L69.62-19.63Q70.7-20.02 71.87-20.02L71.87-20.02Q77.29-20.02 78.17-13.18L78.17-13.18Q78.32-12.01 78.32-10.6L78.32-10.6Q78.32-2.39 73.82-0.98L73.82-0.98Q72.94-0.73 72.02-0.73L72.02-0.73Q67.08-0.73 65.82-6.59L65.82-6.59Q65.47-8.3 65.47-10.4ZM72.02-21.24L72.02-21.24Q67.33-21.24 64.2-18.02L64.2-18.02Q61.32-15.04 61.32-10.6L61.32-10.6Q61.32-4.44 65.82-1.37L65.82-1.37Q68.55 0.49 71.87 0.49L71.87 0.49Q76.56 0.49 79.63-2.83L79.63-2.83Q82.47-5.86 82.47-10.4L82.47-10.4Q82.47-16.55 77.92-19.53L77.92-19.53Q75.24-21.24 72.02-21.24ZM93.69-0.83L93.69-0.83Q97.06-0.83 98.23-2.88L98.23-2.88Q98.67-3.61 98.67-4.49L98.67-4.49Q98.67-6.54 95.7-8.01L95.7-8.01Q95.06-8.35 93.6-8.98L93.6-8.98Q89.59-10.64 88.27-12.11L88.27-12.11Q86.86-13.72 86.86-15.87L86.86-15.87Q86.86-19.24 90.57-20.61L90.57-20.61Q92.28-21.24 94.28-21.24L94.28-21.24Q97.5-21.24 99.85-19.87L99.85-19.87Q99.85-21.29 100.53-21.48L100.53-21.48Q100.82-21.53 101.16-21.53L101.16-21.53 101.16-15.43 99.89-15.43Q99.8-19.92 94.91-19.97L94.91-19.97Q91.25-19.97 90.37-17.82L90.37-17.82Q90.13-17.24 90.13-16.6L90.13-16.6Q90.13-14.5 93.16-13.04L93.16-13.04Q93.84-12.7 95.31-12.11L95.31-12.11Q99.26-10.5 100.58-9.03L100.58-9.03Q101.99-7.47 101.99-5.32L101.99-5.32Q101.99-1.37 97.8-0.05L97.8-0.05Q96.18 0.49 94.28 0.49L94.28 0.49Q90.76 0.44 88.18-1.27L88.18-1.27Q88.18 0 87.54 0.2L87.54 0.2Q87.25 0.24 86.86 0.24L86.86 0.24 86.86-7.18 88.22-7.18Q88.32-0.88 93.69-0.83ZM115.96 8.06L112.54 8.06 112.54-2.05Q115.22 0.29 118.74 0.49L118.74 0.49Q123.09 0.49 126.02-2.78L126.02-2.78Q128.85-5.96 128.85-10.84L128.85-10.84Q128.85-16.41 125.77-19.29L125.77-19.29Q123.62-21.24 120.55-21.24L120.55-21.24Q115.81-21.24 113.47-17.48L113.47-17.48Q112.88-16.5 112.49-15.43L112.49-15.43 112.25-20.75 105.21-20.75 105.21-19.53 108.88-19.53 108.88 5.13Q108.88 7.37 107.61 7.81L107.61 7.81Q106.87 8.06 105.21 8.06L105.21 8.06 105.21 9.28 117.18 9.28Q117.18 8.2 116.45 8.11L116.45 8.11Q116.25 8.06 115.96 8.06L115.96 8.06ZM118.98-19.29L118.98-19.29Q123.23-19.29 124.36-13.96L124.36-13.96Q124.7-12.35 124.7-10.35L124.7-10.35Q124.7-3.17 120.84-1.27L120.84-1.27Q119.72-0.73 118.4-0.73L118.4-0.73Q114.64-0.73 113.22-4.69L113.22-4.69Q112.49-6.69 112.49-9.42L112.49-9.42Q112.49-15.77 115.76-18.21L115.76-18.21Q117.23-19.29 118.98-19.29ZM149.89 0.49L149.89 0.49Q153.65 0.49 154.04-4.05L154.04-4.05Q154.09-4.35 154.09-4.59L154.09-4.59 152.82-4.64Q152.48-1.07 150.92-1.03L150.92-1.03Q149.65-1.12 149.6-3.56L149.6-3.56 149.6-13.87Q149.6-20.85 142.61-21.24L142.61-21.24Q142.18-21.24 141.74-21.24L141.74-21.24Q136.27-21.24 134.41-18.7L134.41-18.7Q133.83-17.87 133.83-17.04L133.83-17.04Q133.83-15.53 135.24-15.28L135.24-15.28Q135.49-15.23 135.73-15.23L135.73-15.23Q136.85-15.23 137.39-16.65L137.39-16.65Q138.07-18.46 138.32-18.8L138.32-18.8Q139.25-20.02 141.2-20.02L141.2-20.02Q145.79-19.73 145.93-14.99L145.93-14.99 145.93-11.91Q134.46-11.91 132.8-7.13L132.8-7.13Q132.51-6.2 132.51-5.13L132.51-5.13Q132.51-1.42 135.78-0.05L135.78-0.05Q137.1 0.49 138.56 0.49L138.56 0.49Q142.13 0.49 144.57-1.95L144.57-1.95Q145.45-2.88 145.89-3.91L145.89-3.91Q146.47 0.44 149.89 0.49ZM140.17-1.46L140.17-1.46Q137.19-1.46 136.51-4.44L136.51-4.44Q136.36-5.13 136.36-5.96L136.36-5.96Q136.36-9.23 140.12-10.11L140.12-10.11Q142.13-10.55 145.93-10.6L145.93-10.6 145.93-6.69Q145.2-3.32 142.37-1.95L142.37-1.95Q141.25-1.46 140.17-1.46ZM169.27 0.49L169.27 0.49Q173.57 0.49 176.5-2.73L176.5-2.73Q179.23-5.86 179.23-10.64L179.23-10.64Q179.23-16.02 176.3-19.04L176.3-19.04Q174.11-21.24 170.88-21.24L170.88-21.24Q165.56-21.24 163.32-16.46L163.32-16.46Q163.07-16.02 162.92-15.58L162.92-15.58 162.92-31.74 155.6-31.74 155.6-30.52 159.26-30.52 159.26-4.15Q159.26-1.9 157.99-1.46L157.99-1.46Q157.26-1.22 155.6-1.22L155.6-1.22 155.6 0 161.75 0 162.19-3.22Q164.29 0.15 168.54 0.44L168.54 0.44Q168.93 0.49 169.27 0.49ZM169.37-19.29L169.37-19.29Q173.37-19.29 174.59-14.4L174.59-14.4Q175.08-12.6 175.08-10.3L175.08-10.3Q175.08-3.42 171.37-1.37L171.37-1.37Q170.2-0.73 168.78-0.73L168.78-0.73Q165.12-0.73 163.61-4.64L163.61-4.64Q162.88-6.69 162.88-9.38L162.88-9.38Q162.88-15.28 165.81-17.92L165.81-17.92Q167.37-19.29 169.37-19.29Z" opacity="1" transform="matrix(1,0,0,1,0,0)" fill="#89939e" class="wordmark-text-0" data-fill-palette-color="primary" id="text-0"></path></svg></g></svg></g></svg></g></svg></g><g></g></svg></g></svg></g></svg></g></svg></g><defs></defs></svg><rect width="375.07953" height="216.32772999999995" fill="none" stroke="none" visibility="hidden"></rect></g></svg></g></svg>